<?xml version="1.0" encoding="utf-8"?>
<!-- Generator: Adobe Illustrator 22.0.1, SVG Export Plug-In . SVG Version: 6.00 Build 0)  -->
<svg version="1.1" id="Layer_1" xmlns="http://www.w3.org/2000/svg" xmlns:xlink="http://www.w3.org/1999/xlink" x="0px" y="0px"
	 viewBox="0 0 524.4 215.9" style="enable-background:new 0 0 524.4 215.9;" xml:space="preserve">
<style type="text/css">
	.st0{fill:url(#SVGID_1_);}
	.st1{fill:url(#SVGID_2_);}
	.st2{fill:url(#SVGID_3_);}
	.st3{fill:url(#SVGID_4_);}
	.st4{fill:url(#SVGID_5_);}
	.st5{fill:url(#SVGID_6_);}
	.st6{fill:url(#SVGID_7_);}
	.st7{fill:url(#SVGID_8_);}
	.st8{fill:url(#SVGID_9_);}
	.st9{fill:url(#SVGID_10_);}
	.st10{fill:url(#SVGID_11_);}
	.st11{fill:url(#SVGID_12_);}
	.st12{fill:url(#SVGID_13_);}
	.st13{fill:url(#SVGID_14_);}
	.st14{fill:url(#SVGID_15_);}
	.st15{fill:url(#SVGID_16_);}
	.st16{fill:url(#SVGID_17_);}
	.st17{fill:url(#SVGID_18_);}
	.st18{fill:url(#SVGID_19_);}
	.st19{fill:url(#SVGID_20_);}
	.st20{fill:url(#SVGID_21_);}
	.st21{fill:url(#SVGID_22_);}
	.st22{fill:url(#SVGID_23_);}
	.st23{fill:url(#SVGID_24_);}
	.st24{fill:url(#SVGID_25_);}
	.st25{fill:url(#SVGID_26_);}
	.st26{fill:url(#SVGID_27_);}
	.st27{fill:url(#SVGID_28_);}
	.st28{fill:url(#SVGID_29_);}
	.st29{fill:url(#SVGID_30_);}
	.st30{fill:url(#SVGID_31_);}
	.st31{fill:url(#SVGID_32_);}
	.st32{fill:url(#SVGID_33_);}
	.st33{fill:url(#SVGID_34_);}
	.st34{fill:url(#SVGID_35_);}
	.st35{fill:url(#SVGID_36_);}
	.st36{fill:url(#SVGID_37_);}
	.st37{fill:url(#SVGID_38_);}
	.st38{fill:url(#SVGID_39_);}
	.st39{fill:url(#SVGID_40_);}
	.st40{fill:url(#SVGID_41_);}
	.st41{fill:url(#SVGID_42_);}
	.st42{fill:url(#SVGID_43_);}
	.st43{fill:url(#SVGID_44_);}
	.st44{fill:url(#SVGID_45_);}
	.st45{fill:url(#SVGID_46_);}
	.st46{fill:url(#SVGID_47_);}
	.st47{fill:url(#SVGID_48_);}
	.st48{fill:url(#SVGID_49_);}
	.st49{fill:url(#SVGID_50_);}
	.st50{fill:url(#SVGID_51_);}
	.st51{fill:url(#SVGID_52_);}
	.st52{fill:url(#SVGID_53_);}
	.st53{fill:url(#SVGID_54_);}
	.st54{fill:url(#SVGID_55_);}
	.st55{fill:url(#SVGID_56_);}
	.st56{fill:url(#SVGID_57_);}
	.st57{fill:url(#SVGID_58_);}
	.st58{fill:url(#SVGID_59_);}
	.st59{fill:url(#SVGID_60_);}
	.st60{fill:url(#SVGID_61_);}
	.st61{fill:url(#SVGID_62_);}
	.st62{fill:url(#SVGID_63_);}
	.st63{fill:url(#SVGID_64_);}
	.st64{fill:url(#SVGID_65_);}
	.st65{fill:url(#SVGID_66_);}
	.st66{fill:url(#SVGID_67_);}
	.st67{fill:url(#SVGID_68_);}
	.st68{fill:url(#SVGID_69_);}
	.st69{fill:url(#SVGID_70_);}
	.st70{fill:#005C90;}
	.st71{fill:url(#SVGID_71_);}
	.st72{fill:url(#SVGID_72_);}
</style>
<g>
	<g>
		<g>
			
				<linearGradient id="SVGID_1_" gradientUnits="userSpaceOnUse" x1="926.455" y1="-22.101" x2="1019.4862" y2="62.4727" gradientTransform="matrix(-0.8719 -0.4898 -0.4898 0.8719 1290.4249 557.2852)">
				<stop  offset="0" style="stop-color:#C4AC78"/>
				<stop  offset="1" style="stop-color:#C4AC78;stop-opacity:0"/>
			</linearGradient>
			<circle class="st0" cx="352.2" cy="116.7" r="7.1"/>
			
				<linearGradient id="SVGID_2_" gradientUnits="userSpaceOnUse" x1="968.3241" y1="-68.157" x2="1061.3551" y2="16.4167" gradientTransform="matrix(-0.8719 -0.4898 -0.4898 0.8719 1290.4249 557.2852)">
				<stop  offset="0" style="stop-color:#C4AC78"/>
				<stop  offset="1" style="stop-color:#C4AC78;stop-opacity:0"/>
			</linearGradient>
			<path class="st1" d="M342.2,58.7c2.2,1.3,5.1,0.5,6.4-1.8c1.3-2.2,0.5-5.1-1.8-6.4c-2.2-1.3-5.1-0.5-6.4,1.8
				C339.1,54.6,339.9,57.4,342.2,58.7z"/>
			
				<linearGradient id="SVGID_3_" gradientUnits="userSpaceOnUse" x1="952.9088" y1="-51.2001" x2="1045.9398" y2="33.3736" gradientTransform="matrix(-0.8719 -0.4898 -0.4898 0.8719 1290.4249 557.2852)">
				<stop  offset="0" style="stop-color:#C4AC78"/>
				<stop  offset="1" style="stop-color:#C4AC78;stop-opacity:0"/>
			</linearGradient>
			<path class="st2" d="M335.9,75.7c-2.5-0.5-5,1.1-5.5,3.7c-0.5,2.5,1.1,5,3.7,5.5c2.5,0.5,5-1.1,5.5-3.7
				C340.1,78.7,338.4,76.2,335.9,75.7z"/>
			
				<linearGradient id="SVGID_4_" gradientUnits="userSpaceOnUse" x1="935.1532" y1="-31.6691" x2="1028.1843" y2="52.9047" gradientTransform="matrix(-0.8719 -0.4898 -0.4898 0.8719 1290.4249 557.2852)">
				<stop  offset="0" style="stop-color:#C4AC78"/>
				<stop  offset="1" style="stop-color:#C4AC78;stop-opacity:0"/>
			</linearGradient>
			<path class="st3" d="M333.3,103c-2.6,0.3-4.4,2.6-4.1,5.2s2.6,4.4,5.2,4.1s4.4-2.6,4.1-5.2C338.2,104.5,335.9,102.7,333.3,103z"
				/>
			
				<linearGradient id="SVGID_5_" gradientUnits="userSpaceOnUse" x1="916.7974" y1="-11.4777" x2="1009.8285" y2="73.096" gradientTransform="matrix(-0.8719 -0.4898 -0.4898 0.8719 1290.4249 557.2852)">
				<stop  offset="0" style="stop-color:#C4AC78"/>
				<stop  offset="1" style="stop-color:#C4AC78;stop-opacity:0"/>
			</linearGradient>
			<path class="st4" d="M345.5,132c-1.1-2.3-3.9-3.4-6.2-2.3c-2.3,1.1-3.4,3.9-2.3,6.2c1.1,2.3,3.9,3.4,6.2,2.3
				C345.6,137.1,346.6,134.4,345.5,132z"/>
			
				<linearGradient id="SVGID_6_" gradientUnits="userSpaceOnUse" x1="899.5603" y1="7.4831" x2="992.5916" y2="92.0568" gradientTransform="matrix(-0.8719 -0.4898 -0.4898 0.8719 1290.4249 557.2852)">
				<stop  offset="0" style="stop-color:#C4AC78"/>
				<stop  offset="1" style="stop-color:#C4AC78;stop-opacity:0"/>
			</linearGradient>
			<path class="st5" d="M359.9,153.6c-1.7-1.9-4.7-2-6.6-0.3s-2,4.7-0.3,6.6s4.7,2,6.6,0.3C361.5,158.4,361.6,155.5,359.9,153.6z"/>
			
				<linearGradient id="SVGID_7_" gradientUnits="userSpaceOnUse" x1="885.2134" y1="23.2647" x2="978.2444" y2="107.8385" gradientTransform="matrix(-0.8719 -0.4898 -0.4898 0.8719 1290.4249 557.2852)">
				<stop  offset="0" style="stop-color:#C4AC78"/>
				<stop  offset="1" style="stop-color:#C4AC78;stop-opacity:0"/>
			</linearGradient>
			<path class="st6" d="M380.2,169.6c-2.2-1.3-5.1-0.5-6.4,1.8c-1.3,2.2-0.5,5.1,1.8,6.4s5.1,0.5,6.4-1.8
				C383.2,173.8,382.4,170.9,380.2,169.6z"/>
			
				<linearGradient id="SVGID_8_" gradientUnits="userSpaceOnUse" x1="875.1154" y1="34.3725" x2="968.1464" y2="118.9463" gradientTransform="matrix(-0.8719 -0.4898 -0.4898 0.8719 1290.4249 557.2852)">
				<stop  offset="0" style="stop-color:#C4AC78"/>
				<stop  offset="1" style="stop-color:#C4AC78;stop-opacity:0"/>
			</linearGradient>
			<path class="st7" d="M404.5,178.6c-2.5-0.5-5,1.1-5.5,3.7c-0.5,2.5,1.1,5,3.7,5.5c2.5,0.5,5-1.1,5.5-3.7
				C408.6,181.6,407,179.1,404.5,178.6z"/>
			
				<linearGradient id="SVGID_9_" gradientUnits="userSpaceOnUse" x1="893.6672" y1="13.9655" x2="986.6985" y2="98.5392" gradientTransform="matrix(-0.8719 -0.4898 -0.4898 0.8719 1290.4249 557.2852)">
				<stop  offset="0" style="stop-color:#C4AC78"/>
				<stop  offset="1" style="stop-color:#C4AC78;stop-opacity:0"/>
			</linearGradient>
			<path class="st8" d="M414.7,154.3c0.5-2.5-1.1-5-3.7-5.5c-2.5-0.5-5,1.1-5.5,3.7s1.1,5,3.7,5.5S414.2,156.9,414.7,154.3z"/>
			
				<linearGradient id="SVGID_10_" gradientUnits="userSpaceOnUse" x1="906.2694" y1="0.103" x2="999.3007" y2="84.6768" gradientTransform="matrix(-0.8719 -0.4898 -0.4898 0.8719 1290.4249 557.2852)">
				<stop  offset="0" style="stop-color:#C4AC78"/>
				<stop  offset="1" style="stop-color:#C4AC78;stop-opacity:0"/>
			</linearGradient>
			<circle class="st9" cx="414.8" cy="133.1" r="4.7"/>
			
				<linearGradient id="SVGID_11_" gradientUnits="userSpaceOnUse" x1="905.1272" y1="1.3595" x2="998.1583" y2="85.9333" gradientTransform="matrix(-0.8719 -0.4898 -0.4898 0.8719 1290.4249 557.2852)">
				<stop  offset="0" style="stop-color:#C4AC78"/>
				<stop  offset="1" style="stop-color:#C4AC78;stop-opacity:0"/>
			</linearGradient>
			<path class="st10" d="M432.7,131.7c1.1,2.3,3.9,3.4,6.2,2.3c2.3-1.1,3.4-3.9,2.3-6.2c-1.1-2.3-3.9-3.4-6.2-2.3
				C432.6,126.6,431.6,129.4,432.7,131.7z"/>
			
				<linearGradient id="SVGID_12_" gradientUnits="userSpaceOnUse" x1="912.9974" y1="-7.2976" x2="1006.0285" y2="77.2761" gradientTransform="matrix(-0.8719 -0.4898 -0.4898 0.8719 1290.4249 557.2852)">
				<stop  offset="0" style="stop-color:#C4AC78"/>
				<stop  offset="1" style="stop-color:#C4AC78;stop-opacity:0"/>
			</linearGradient>
			<circle class="st11" cx="452.8" cy="114.1" r="4.7"/>
			
				<linearGradient id="SVGID_13_" gradientUnits="userSpaceOnUse" x1="926.9017" y1="-22.5925" x2="1019.9329" y2="61.9812" gradientTransform="matrix(-0.8719 -0.4898 -0.4898 0.8719 1290.4249 557.2852)">
				<stop  offset="0" style="stop-color:#C4AC78"/>
				<stop  offset="1" style="stop-color:#C4AC78;stop-opacity:0"/>
			</linearGradient>
			<path class="st12" d="M457,96.7c2.6-0.3,4.4-2.6,4.1-5.2s-2.6-4.4-5.2-4.1s-4.4,2.6-4.1,5.2S454.4,97,457,96.7z"/>
			
				<linearGradient id="SVGID_14_" gradientUnits="userSpaceOnUse" x1="941.5195" y1="-38.672" x2="1034.5507" y2="45.9017" gradientTransform="matrix(-0.8719 -0.4898 -0.4898 0.8719 1290.4249 557.2852)">
				<stop  offset="0" style="stop-color:#C4AC78"/>
				<stop  offset="1" style="stop-color:#C4AC78;stop-opacity:0"/>
			</linearGradient>
			<path class="st13" d="M449.9,68.9c-1.7-1.9-4.7-2-6.6-0.3s-2,4.7-0.3,6.6c1.7,1.9,4.7,2,6.6,0.3
				C451.5,73.8,451.6,70.8,449.9,68.9z"/>
			
				<linearGradient id="SVGID_15_" gradientUnits="userSpaceOnUse" x1="951.2305" y1="-49.354" x2="1044.2616" y2="35.2198" gradientTransform="matrix(-0.8719 -0.4898 -0.4898 0.8719 1290.4249 557.2852)">
				<stop  offset="0" style="stop-color:#C4AC78"/>
				<stop  offset="1" style="stop-color:#C4AC78;stop-opacity:0"/>
			</linearGradient>
			<circle class="st14" cx="426.6" cy="61.8" r="4.7"/>
			
				<linearGradient id="SVGID_16_" gradientUnits="userSpaceOnUse" x1="952.3585" y1="-50.5949" x2="1045.3896" y2="33.9789" gradientTransform="matrix(-0.8719 -0.4898 -0.4898 0.8719 1290.4249 557.2852)">
				<stop  offset="0" style="stop-color:#C4AC78"/>
				<stop  offset="1" style="stop-color:#C4AC78;stop-opacity:0"/>
			</linearGradient>
			<path class="st15" d="M406.5,69.4c2.3-1.1,3.4-3.9,2.3-6.2c-1.1-2.3-3.9-3.4-6.2-2.3c-2.3,1.1-3.4,3.9-2.3,6.2
				C401.4,69.5,404.1,70.5,406.5,69.4z"/>
			
				<linearGradient id="SVGID_17_" gradientUnits="userSpaceOnUse" x1="944.437" y1="-41.8812" x2="1037.4681" y2="42.6926" gradientTransform="matrix(-0.8719 -0.4898 -0.4898 0.8719 1290.4249 557.2852)">
				<stop  offset="0" style="stop-color:#C4AC78"/>
				<stop  offset="1" style="stop-color:#C4AC78;stop-opacity:0"/>
			</linearGradient>
			<circle class="st16" cx="388.6" cy="80.9" r="4.7"/>
			
				<linearGradient id="SVGID_18_" gradientUnits="userSpaceOnUse" x1="930.5828" y1="-26.6415" x2="1023.6138" y2="57.9323" gradientTransform="matrix(-0.8719 -0.4898 -0.4898 0.8719 1290.4249 557.2852)">
				<stop  offset="0" style="stop-color:#C4AC78"/>
				<stop  offset="1" style="stop-color:#C4AC78;stop-opacity:0"/>
			</linearGradient>
			<path class="st17" d="M380.4,103.4c0.3,2.6,2.6,4.4,5.2,4.1s4.4-2.6,4.1-5.2s-2.6-4.4-5.2-4.1
				C381.9,98.5,380.1,100.9,380.4,103.4z"/>
			
				<linearGradient id="SVGID_19_" gradientUnits="userSpaceOnUse" x1="915.9401" y1="-10.5346" x2="1008.9712" y2="74.0391" gradientTransform="matrix(-0.8719 -0.4898 -0.4898 0.8719 1290.4249 557.2852)">
				<stop  offset="0" style="stop-color:#C4AC78"/>
				<stop  offset="1" style="stop-color:#C4AC78;stop-opacity:0"/>
			</linearGradient>
			<circle class="st18" cx="395" cy="122.9" r="4.7"/>
			
				<linearGradient id="SVGID_20_" gradientUnits="userSpaceOnUse" x1="891.3201" y1="16.5473" x2="984.3513" y2="101.121" gradientTransform="matrix(-0.8719 -0.4898 -0.4898 0.8719 1290.4249 557.2852)">
				<stop  offset="0" style="stop-color:#C4AC78"/>
				<stop  offset="1" style="stop-color:#C4AC78;stop-opacity:0"/>
			</linearGradient>
			<path class="st19" d="M447,153.2c2.3-1.1,3.4-3.9,2.3-6.2c-1.1-2.3-3.9-3.4-6.2-2.3c-2.3,1.1-3.4,3.9-2.3,6.2
				C441.9,153.2,444.7,154.3,447,153.2z"/>
			
				<linearGradient id="SVGID_21_" gradientUnits="userSpaceOnUse" x1="903.2853" y1="3.3856" x2="996.3165" y2="87.9593" gradientTransform="matrix(-0.8719 -0.4898 -0.4898 0.8719 1290.4249 557.2852)">
				<stop  offset="0" style="stop-color:#C4AC78"/>
				<stop  offset="1" style="stop-color:#C4AC78;stop-opacity:0"/>
			</linearGradient>
			<circle class="st20" cx="470.7" cy="124.8" r="4.7"/>
			
				<linearGradient id="SVGID_22_" gradientUnits="userSpaceOnUse" x1="924.9468" y1="-20.442" x2="1017.978" y2="64.1317" gradientTransform="matrix(-0.8719 -0.4898 -0.4898 0.8719 1290.4249 557.2852)">
				<stop  offset="0" style="stop-color:#C4AC78"/>
				<stop  offset="1" style="stop-color:#C4AC78;stop-opacity:0"/>
			</linearGradient>
			<path class="st21" d="M477.8,94.9c2.6-0.3,4.4-2.6,4.1-5.2s-2.6-4.4-5.2-4.1s-4.4,2.6-4.1,5.2C472.9,93.3,475.2,95.2,477.8,94.9z
				"/>
			
				<linearGradient id="SVGID_23_" gradientUnits="userSpaceOnUse" x1="948.0831" y1="-45.8919" x2="1041.1143" y2="38.6818" gradientTransform="matrix(-0.8719 -0.4898 -0.4898 0.8719 1290.4249 557.2852)">
				<stop  offset="0" style="stop-color:#C4AC78"/>
				<stop  offset="1" style="stop-color:#C4AC78;stop-opacity:0"/>
			</linearGradient>
			<path class="st22" d="M459,55c-1.9,1.7-2,4.7-0.3,6.6c1.7,1.9,4.7,2,6.6,0.3s2-4.7,0.3-6.6S460.9,53.2,459,55z"/>
			
				<linearGradient id="SVGID_24_" gradientUnits="userSpaceOnUse" x1="963.8243" y1="-63.2073" x2="1056.8556" y2="21.3664" gradientTransform="matrix(-0.8719 -0.4898 -0.4898 0.8719 1290.4249 557.2852)">
				<stop  offset="0" style="stop-color:#C4AC78"/>
				<stop  offset="1" style="stop-color:#C4AC78;stop-opacity:0"/>
			</linearGradient>
			<path class="st23" d="M426.7,40.6c-0.5,2.5,1.1,5,3.7,5.5c2.5,0.5,5-1.1,5.5-3.7c0.5-2.5-1.1-5-3.7-5.5
				C429.7,36.4,427.2,38.1,426.7,40.6z"/>
			
				<linearGradient id="SVGID_25_" gradientUnits="userSpaceOnUse" x1="966.1682" y1="-65.7856" x2="1059.1995" y2="18.7882" gradientTransform="matrix(-0.8719 -0.4898 -0.4898 0.8719 1290.4249 557.2852)">
				<stop  offset="0" style="stop-color:#C4AC78"/>
				<stop  offset="1" style="stop-color:#C4AC78;stop-opacity:0"/>
			</linearGradient>
			<path class="st24" d="M394.4,41.7c-2.3,1.1-3.4,3.9-2.3,6.2s3.9,3.4,6.2,2.3c2.3-1.1,3.4-3.9,2.3-6.2
				C399.6,41.7,396.8,40.7,394.4,41.7z"/>
			
				<linearGradient id="SVGID_26_" gradientUnits="userSpaceOnUse" x1="954.1994" y1="-52.6199" x2="1047.2306" y2="31.9538" gradientTransform="matrix(-0.8719 -0.4898 -0.4898 0.8719 1290.4249 557.2852)">
				<stop  offset="0" style="stop-color:#C4AC78"/>
				<stop  offset="1" style="stop-color:#C4AC78;stop-opacity:0"/>
			</linearGradient>
			<circle class="st25" cx="370.8" cy="70.1" r="4.7"/>
			
				<linearGradient id="SVGID_27_" gradientUnits="userSpaceOnUse" x1="932.4725" y1="-28.7202" x2="1025.5035" y2="55.8535" gradientTransform="matrix(-0.8719 -0.4898 -0.4898 0.8719 1290.4249 557.2852)">
				<stop  offset="0" style="stop-color:#C4AC78"/>
				<stop  offset="1" style="stop-color:#C4AC78;stop-opacity:0"/>
			</linearGradient>
			<path class="st26" d="M363.7,100.1c-2.6,0.3-4.4,2.6-4.1,5.2s2.6,4.4,5.2,4.1s4.4-2.6,4.1-5.2
				C368.6,101.6,366.3,99.8,363.7,100.1z"/>
			
				<linearGradient id="SVGID_28_" gradientUnits="userSpaceOnUse" x1="909.3508" y1="-3.2864" x2="1002.3819" y2="81.2874" gradientTransform="matrix(-0.8719 -0.4898 -0.4898 0.8719 1290.4249 557.2852)">
				<stop  offset="0" style="stop-color:#C4AC78"/>
				<stop  offset="1" style="stop-color:#C4AC78;stop-opacity:0"/>
			</linearGradient>
			<path class="st27" d="M382.5,140c1.9-1.7,2-4.7,0.3-6.6s-4.7-2-6.6-0.3s-2,4.7-0.3,6.6C377.6,141.6,380.6,141.7,382.5,140z"/>
			
				<linearGradient id="SVGID_29_" gradientUnits="userSpaceOnUse" x1="870.2394" y1="39.7361" x2="963.2705" y2="124.3099" gradientTransform="matrix(-0.8719 -0.4898 -0.4898 0.8719 1290.4249 557.2852)">
				<stop  offset="0" style="stop-color:#C4AC78"/>
				<stop  offset="1" style="stop-color:#C4AC78;stop-opacity:0"/>
			</linearGradient>
			<path class="st28" d="M430.4,179.7c-2.6,0.3-4.4,2.6-4.1,5.2s2.6,4.4,5.2,4.1s4.4-2.6,4.1-5.2
				C435.2,181.2,432.9,179.4,430.4,179.7z"/>
			
				<linearGradient id="SVGID_30_" gradientUnits="userSpaceOnUse" x1="871.1667" y1="38.7159" x2="964.198" y2="123.2897" gradientTransform="matrix(-0.8719 -0.4898 -0.4898 0.8719 1290.4249 557.2852)">
				<stop  offset="0" style="stop-color:#C4AC78"/>
				<stop  offset="1" style="stop-color:#C4AC78;stop-opacity:0"/>
			</linearGradient>
			<circle class="st29" cx="457.2" cy="176.9" r="4.7"/>
			
				<linearGradient id="SVGID_31_" gradientUnits="userSpaceOnUse" x1="877.6544" y1="31.5798" x2="970.6854" y2="116.1536" gradientTransform="matrix(-0.8719 -0.4898 -0.4898 0.8719 1290.4249 557.2852)">
				<stop  offset="0" style="stop-color:#C4AC78"/>
				<stop  offset="1" style="stop-color:#C4AC78;stop-opacity:0"/>
			</linearGradient>
			<path class="st30" d="M476.6,164.9c1.7,1.9,4.7,2,6.6,0.3s2-4.7,0.3-6.6s-4.7-2-6.6-0.3C474.9,160.1,474.8,163,476.6,164.9z"/>
			
				<linearGradient id="SVGID_32_" gradientUnits="userSpaceOnUse" x1="889.1608" y1="18.9226" x2="982.1919" y2="103.4963" gradientTransform="matrix(-0.8719 -0.4898 -0.4898 0.8719 1290.4249 557.2852)">
				<stop  offset="0" style="stop-color:#C4AC78"/>
				<stop  offset="1" style="stop-color:#C4AC78;stop-opacity:0"/>
			</linearGradient>
			<circle class="st31" cx="497" cy="140.3" r="4.7"/>
			
				<linearGradient id="SVGID_33_" gradientUnits="userSpaceOnUse" x1="904.5762" y1="1.9657" x2="997.6073" y2="86.5395" gradientTransform="matrix(-0.8719 -0.4898 -0.4898 0.8719 1290.4249 557.2852)">
				<stop  offset="0" style="stop-color:#C4AC78"/>
				<stop  offset="1" style="stop-color:#C4AC78;stop-opacity:0"/>
			</linearGradient>
			<path class="st32" d="M505.6,119.2c2.5,0.5,5-1.1,5.5-3.7c0.5-2.5-1.1-5-3.7-5.5c-2.5-0.5-5,1.1-5.5,3.7S503,118.7,505.6,119.2z"
				/>
			
				<linearGradient id="SVGID_34_" gradientUnits="userSpaceOnUse" x1="922.3467" y1="-17.5819" x2="1015.3779" y2="66.9918" gradientTransform="matrix(-0.8719 -0.4898 -0.4898 0.8719 1290.4249 557.2852)">
				<stop  offset="0" style="stop-color:#C4AC78"/>
				<stop  offset="1" style="stop-color:#C4AC78;stop-opacity:0"/>
			</linearGradient>
			<path class="st33" d="M508.1,91.9c2.6-0.3,4.4-2.6,4.1-5.2c-0.3-2.6-2.6-4.4-5.2-4.1c-2.6,0.3-4.4,2.6-4.1,5.2
				C503.3,90.4,505.6,92.2,508.1,91.9z"/>
			
				<linearGradient id="SVGID_35_" gradientUnits="userSpaceOnUse" x1="940.6622" y1="-37.7289" x2="1033.6934" y2="46.8449" gradientTransform="matrix(-0.8719 -0.4898 -0.4898 0.8719 1290.4249 557.2852)">
				<stop  offset="0" style="stop-color:#C4AC78"/>
				<stop  offset="1" style="stop-color:#C4AC78;stop-opacity:0"/>
			</linearGradient>
			<circle class="st34" cx="500.2" cy="61" r="4.7"/>
			
				<linearGradient id="SVGID_36_" gradientUnits="userSpaceOnUse" x1="957.8589" y1="-56.6453" x2="1050.89" y2="27.9284" gradientTransform="matrix(-0.8719 -0.4898 -0.4898 0.8719 1290.4249 557.2852)">
				<stop  offset="0" style="stop-color:#C4AC78"/>
				<stop  offset="1" style="stop-color:#C4AC78;stop-opacity:0"/>
			</linearGradient>
			<path class="st35" d="M481.6,41.4c1.7,1.9,4.7,2,6.6,0.3s2-4.7,0.3-6.6c-1.7-1.9-4.7-2-6.6-0.3C480,36.5,479.8,39.5,481.6,41.4z"
				/>
			
				<linearGradient id="SVGID_37_" gradientUnits="userSpaceOnUse" x1="972.2686" y1="-72.4959" x2="1065.2997" y2="12.0778" gradientTransform="matrix(-0.8719 -0.4898 -0.4898 0.8719 1290.4249 557.2852)">
				<stop  offset="0" style="stop-color:#C4AC78"/>
				<stop  offset="1" style="stop-color:#C4AC78;stop-opacity:0"/>
			</linearGradient>
			<circle class="st36" cx="463.6" cy="21.2" r="4.7"/>
			
				<linearGradient id="SVGID_38_" gradientUnits="userSpaceOnUse" x1="982.3695" y1="-83.607" x2="1075.4008" y2="0.9668" gradientTransform="matrix(-0.8719 -0.4898 -0.4898 0.8719 1290.4249 557.2852)">
				<stop  offset="0" style="stop-color:#C4AC78"/>
				<stop  offset="1" style="stop-color:#C4AC78;stop-opacity:0"/>
			</linearGradient>
			<path class="st37" d="M437,16.3c2.5,0.5,5-1.1,5.5-3.7c0.5-2.5-1.1-5-3.7-5.5c-2.5-0.5-5,1.1-5.5,3.7
				C432.8,13.3,434.5,15.8,437,16.3z"/>
			
				<linearGradient id="SVGID_39_" gradientUnits="userSpaceOnUse" x1="987.1799" y1="-88.8984" x2="1080.2111" y2="-4.3246" gradientTransform="matrix(-0.8719 -0.4898 -0.4898 0.8719 1290.4249 557.2852)">
				<stop  offset="0" style="stop-color:#C4AC78"/>
				<stop  offset="1" style="stop-color:#C4AC78;stop-opacity:0"/>
			</linearGradient>
			<path class="st38" d="M411.1,15.3c2.6-0.3,4.4-2.6,4.1-5.2c-0.3-2.6-2.6-4.4-5.2-4.1c-2.6,0.3-4.4,2.6-4.1,5.2
				C406.2,13.7,408.5,15.6,411.1,15.3z"/>
			
				<linearGradient id="SVGID_40_" gradientUnits="userSpaceOnUse" x1="986.2928" y1="-87.9226" x2="1079.3239" y2="-3.3488" gradientTransform="matrix(-0.8719 -0.4898 -0.4898 0.8719 1290.4249 557.2852)">
				<stop  offset="0" style="stop-color:#C4AC78"/>
				<stop  offset="1" style="stop-color:#C4AC78;stop-opacity:0"/>
			</linearGradient>
			<path class="st39" d="M380,20c1.1,2.3,3.9,3.4,6.2,2.3c2.3-1.1,3.4-3.9,2.3-6.2s-3.9-3.4-6.2-2.3C379.9,14.8,378.9,17.6,380,20z"
				/>
			
				<linearGradient id="SVGID_41_" gradientUnits="userSpaceOnUse" x1="979.8306" y1="-80.8142" x2="1072.8617" y2="3.7596" gradientTransform="matrix(-0.8719 -0.4898 -0.4898 0.8719 1290.4249 557.2852)">
				<stop  offset="0" style="stop-color:#C4AC78"/>
				<stop  offset="1" style="stop-color:#C4AC78;stop-opacity:0"/>
			</linearGradient>
			<path class="st40" d="M358,36.3c1.7,1.9,4.7,2,6.6,0.3s2-4.7,0.3-6.6c-1.7-1.9-4.7-2-6.6-0.3C356.4,31.5,356.3,34.4,358,36.3z"/>
			
				<linearGradient id="SVGID_42_" gradientUnits="userSpaceOnUse" x1="911.8116" y1="-5.9933" x2="1004.8428" y2="78.5805" gradientTransform="matrix(-0.8719 -0.4898 -0.4898 0.8719 1290.4249 557.2852)">
				<stop  offset="0" style="stop-color:#C4AC78"/>
				<stop  offset="1" style="stop-color:#C4AC78;stop-opacity:0"/>
			</linearGradient>
			<circle class="st41" cx="361.5" cy="136.9" r="7.1"/>
			
				<linearGradient id="SVGID_43_" gradientUnits="userSpaceOnUse" x1="898.8104" y1="8.308" x2="991.8414" y2="92.8818" gradientTransform="matrix(-0.8719 -0.4898 -0.4898 0.8719 1290.4249 557.2852)">
				<stop  offset="0" style="stop-color:#C4AC78"/>
				<stop  offset="1" style="stop-color:#C4AC78;stop-opacity:0"/>
			</linearGradient>
			<path class="st42" d="M381,147.7c-3.1-2.4-7.5-1.9-9.9,1.2s-1.9,7.5,1.2,9.9s7.5,1.9,9.9-1.2C384.6,154.6,384,150.2,381,147.7z"
				/>
			
				<linearGradient id="SVGID_44_" gradientUnits="userSpaceOnUse" x1="888.6755" y1="19.4563" x2="981.7067" y2="104.0301" gradientTransform="matrix(-0.8719 -0.4898 -0.4898 0.8719 1290.4249 557.2852)">
				<stop  offset="0" style="stop-color:#C4AC78"/>
				<stop  offset="1" style="stop-color:#C4AC78;stop-opacity:0"/>
			</linearGradient>
			<path class="st43" d="M398.5,157.6c-3.7-1.4-7.7,0.5-9.1,4.2s0.5,7.7,4.2,9.1s7.7-0.5,9.1-4.2C404,163,402.1,158.9,398.5,157.6z"
				/>
			
				<linearGradient id="SVGID_45_" gradientUnits="userSpaceOnUse" x1="882.546" y1="26.1989" x2="975.5771" y2="110.7728" gradientTransform="matrix(-0.8719 -0.4898 -0.4898 0.8719 1290.4249 557.2852)">
				<stop  offset="0" style="stop-color:#C4AC78"/>
				<stop  offset="1" style="stop-color:#C4AC78;stop-opacity:0"/>
			</linearGradient>
			<circle class="st44" cx="417.8" cy="168.6" r="7.1"/>
			
				<linearGradient id="SVGID_46_" gradientUnits="userSpaceOnUse" x1="880.9044" y1="28.0046" x2="973.9356" y2="112.5783" gradientTransform="matrix(-0.8719 -0.4898 -0.4898 0.8719 1290.4249 557.2852)">
				<stop  offset="0" style="stop-color:#C4AC78"/>
				<stop  offset="1" style="stop-color:#C4AC78;stop-opacity:0"/>
			</linearGradient>
			<circle class="st45" cx="440" cy="166" r="7.1"/>
			
				<linearGradient id="SVGID_47_" gradientUnits="userSpaceOnUse" x1="883.9536" y1="24.6505" x2="976.9847" y2="109.2243" gradientTransform="matrix(-0.8719 -0.4898 -0.4898 0.8719 1290.4249 557.2852)">
				<stop  offset="0" style="stop-color:#C4AC78"/>
				<stop  offset="1" style="stop-color:#C4AC78;stop-opacity:0"/>
			</linearGradient>
			<path class="st46" d="M464.1,162.6c3.2-2.2,4.1-6.5,2-9.8c-2.2-3.2-6.5-4.1-9.8-2c-3.2,2.2-4.1,6.5-2,9.8
				S460.8,164.7,464.1,162.6z"/>
			
				<linearGradient id="SVGID_48_" gradientUnits="userSpaceOnUse" x1="891.3579" y1="16.5057" x2="984.3891" y2="101.0795" gradientTransform="matrix(-0.8719 -0.4898 -0.4898 0.8719 1290.4249 557.2852)">
				<stop  offset="0" style="stop-color:#C4AC78"/>
				<stop  offset="1" style="stop-color:#C4AC78;stop-opacity:0"/>
			</linearGradient>
			<path class="st47" d="M480.9,136.1c-3.1-2.4-7.5-1.9-9.9,1.2s-1.9,7.5,1.2,9.9s7.5,1.9,9.9-1.2S484,138.5,480.9,136.1z"/>
			
				<linearGradient id="SVGID_49_" gradientUnits="userSpaceOnUse" x1="902.4324" y1="4.3237" x2="995.4637" y2="88.8975" gradientTransform="matrix(-0.8719 -0.4898 -0.4898 0.8719 1290.4249 557.2852)">
				<stop  offset="0" style="stop-color:#C4AC78"/>
				<stop  offset="1" style="stop-color:#C4AC78;stop-opacity:0"/>
			</linearGradient>
			<path class="st48" d="M489.9,115.6c-3.7-1.4-7.7,0.5-9.1,4.2s0.5,7.7,4.2,9.1s7.7-0.5,9.1-4.2C495.4,121,493.6,116.9,489.9,115.6
				z"/>
			
				<linearGradient id="SVGID_50_" gradientUnits="userSpaceOnUse" x1="916.1143" y1="-10.7261" x2="1009.1453" y2="73.8476" gradientTransform="matrix(-0.8719 -0.4898 -0.4898 0.8719 1290.4249 557.2852)">
				<stop  offset="0" style="stop-color:#C4AC78"/>
				<stop  offset="1" style="stop-color:#C4AC78;stop-opacity:0"/>
			</linearGradient>
			<path class="st49" d="M484.8,100.1c-0.2,3.9,2.9,7.2,6.8,7.3c3.9,0.2,7.2-2.9,7.3-6.8c0.2-3.9-2.9-7.2-6.8-7.3
				S484.9,96.2,484.8,100.1z"/>
			
				<linearGradient id="SVGID_51_" gradientUnits="userSpaceOnUse" x1="931.0449" y1="-27.15" x2="1024.076" y2="57.4239" gradientTransform="matrix(-0.8719 -0.4898 -0.4898 0.8719 1290.4249 557.2852)">
				<stop  offset="0" style="stop-color:#C4AC78"/>
				<stop  offset="1" style="stop-color:#C4AC78;stop-opacity:0"/>
			</linearGradient>
			<circle class="st50" cx="489.2" cy="78.2" r="7.1"/>
			
				<linearGradient id="SVGID_52_" gradientUnits="userSpaceOnUse" x1="945.6884" y1="-43.2577" x2="1038.7194" y2="41.3161" gradientTransform="matrix(-0.8719 -0.4898 -0.4898 0.8719 1290.4249 557.2852)">
				<stop  offset="0" style="stop-color:#C4AC78"/>
				<stop  offset="1" style="stop-color:#C4AC78;stop-opacity:0"/>
			</linearGradient>
			<circle class="st51" cx="479.9" cy="58" r="7.1"/>
			
				<linearGradient id="SVGID_53_" gradientUnits="userSpaceOnUse" x1="958.6746" y1="-57.5425" x2="1051.7056" y2="27.0312" gradientTransform="matrix(-0.8719 -0.4898 -0.4898 0.8719 1290.4249 557.2852)">
				<stop  offset="0" style="stop-color:#C4AC78"/>
				<stop  offset="1" style="stop-color:#C4AC78;stop-opacity:0"/>
			</linearGradient>
			<path class="st52" d="M460.5,47.2c3.1,2.4,7.5,1.9,9.9-1.2c2.4-3.1,1.9-7.5-1.2-9.9s-7.5-1.9-9.9,1.2
				C456.9,40.3,457.4,44.8,460.5,47.2z"/>
			
				<linearGradient id="SVGID_54_" gradientUnits="userSpaceOnUse" x1="968.7437" y1="-68.6186" x2="1061.7749" y2="15.9552" gradientTransform="matrix(-0.8719 -0.4898 -0.4898 0.8719 1290.4249 557.2852)">
				<stop  offset="0" style="stop-color:#C4AC78"/>
				<stop  offset="1" style="stop-color:#C4AC78;stop-opacity:0"/>
			</linearGradient>
			<path class="st53" d="M443,37.4c3.7,1.4,7.7-0.5,9.1-4.2s-0.5-7.7-4.2-9.1c-3.7-1.4-7.7,0.5-9.1,4.2C437.5,32,439.3,36,443,37.4z
				"/>
			
				<linearGradient id="SVGID_55_" gradientUnits="userSpaceOnUse" x1="974.8884" y1="-75.3778" x2="1067.9196" y2="9.196" gradientTransform="matrix(-0.8719 -0.4898 -0.4898 0.8719 1290.4249 557.2852)">
				<stop  offset="0" style="stop-color:#C4AC78"/>
				<stop  offset="1" style="stop-color:#C4AC78;stop-opacity:0"/>
			</linearGradient>
			<circle class="st54" cx="423.6" cy="26.4" r="7.1"/>
			
				<linearGradient id="SVGID_56_" gradientUnits="userSpaceOnUse" x1="976.515" y1="-77.1668" x2="1069.5459" y2="7.4069" gradientTransform="matrix(-0.8719 -0.4898 -0.4898 0.8719 1290.4249 557.2852)">
				<stop  offset="0" style="stop-color:#C4AC78"/>
				<stop  offset="1" style="stop-color:#C4AC78;stop-opacity:0"/>
			</linearGradient>
			<circle class="st55" cx="401.5" cy="29" r="7.1"/>
			
				<linearGradient id="SVGID_57_" gradientUnits="userSpaceOnUse" x1="973.4629" y1="-73.8097" x2="1066.494" y2="10.764" gradientTransform="matrix(-0.8719 -0.4898 -0.4898 0.8719 1290.4249 557.2852)">
				<stop  offset="0" style="stop-color:#C4AC78"/>
				<stop  offset="1" style="stop-color:#C4AC78;stop-opacity:0"/>
			</linearGradient>
			<circle class="st56" cx="381.3" cy="38.3" r="7.1"/>
			
				<linearGradient id="SVGID_58_" gradientUnits="userSpaceOnUse" x1="966.036" y1="-65.6403" x2="1059.0673" y2="18.9335" gradientTransform="matrix(-0.8719 -0.4898 -0.4898 0.8719 1290.4249 557.2852)">
				<stop  offset="0" style="stop-color:#C4AC78"/>
				<stop  offset="1" style="stop-color:#C4AC78;stop-opacity:0"/>
			</linearGradient>
			<circle class="st57" cx="364.9" cy="53.4" r="7.1"/>
			
				<linearGradient id="SVGID_59_" gradientUnits="userSpaceOnUse" x1="954.9869" y1="-53.486" x2="1048.0179" y2="31.0877" gradientTransform="matrix(-0.8719 -0.4898 -0.4898 0.8719 1290.4249 557.2852)">
				<stop  offset="0" style="stop-color:#C4AC78"/>
				<stop  offset="1" style="stop-color:#C4AC78;stop-opacity:0"/>
			</linearGradient>
			<path class="st58" d="M351.6,79.4c3.7,1.4,7.7-0.5,9.1-4.2s-0.5-7.7-4.2-9.1c-3.7-1.4-7.7,0.5-9.1,4.2
				C346,74,347.9,78,351.6,79.4z"/>
			
				<linearGradient id="SVGID_60_" gradientUnits="userSpaceOnUse" x1="941.3055" y1="-38.4367" x2="1034.3368" y2="46.1371" gradientTransform="matrix(-0.8719 -0.4898 -0.4898 0.8719 1290.4249 557.2852)">
				<stop  offset="0" style="stop-color:#C4AC78"/>
				<stop  offset="1" style="stop-color:#C4AC78;stop-opacity:0"/>
			</linearGradient>
			<path class="st59" d="M356.7,94.9c0.2-3.9-2.9-7.2-6.8-7.3c-3.9-0.2-7.2,2.9-7.3,6.8c-0.2,3.9,2.9,7.2,6.8,7.3
				C353.3,101.8,356.5,98.8,356.7,94.9z"/>
			
				<linearGradient id="SVGID_61_" gradientUnits="userSpaceOnUse" x1="903.4805" y1="3.171" x2="996.5116" y2="87.7448" gradientTransform="matrix(-0.8719 -0.4898 -0.4898 0.8719 1290.4249 557.2852)">
				<stop  offset="0" style="stop-color:#C4AC78"/>
				<stop  offset="1" style="stop-color:#C4AC78;stop-opacity:0"/>
			</linearGradient>
			<circle class="st60" cx="395.9" cy="141.7" r="7.9"/>
			
				<linearGradient id="SVGID_62_" gradientUnits="userSpaceOnUse" x1="894.8547" y1="12.6593" x2="987.8859" y2="97.2331" gradientTransform="matrix(-0.8719 -0.4898 -0.4898 0.8719 1290.4249 557.2852)">
				<stop  offset="0" style="stop-color:#C4AC78"/>
				<stop  offset="1" style="stop-color:#C4AC78;stop-opacity:0"/>
			</linearGradient>
			<circle class="st61" cx="426.6" cy="147.8" r="7.9"/>
			
				<linearGradient id="SVGID_63_" gradientUnits="userSpaceOnUse" x1="899.0812" y1="8.0101" x2="992.1124" y2="92.5839" gradientTransform="matrix(-0.8719 -0.4898 -0.4898 0.8719 1290.4249 557.2852)">
				<stop  offset="0" style="stop-color:#C4AC78"/>
				<stop  offset="1" style="stop-color:#C4AC78;stop-opacity:0"/>
			</linearGradient>
			<circle class="st62" cx="455.1" cy="134.8" r="7.9"/>
			
				<linearGradient id="SVGID_64_" gradientUnits="userSpaceOnUse" x1="914.6965" y1="-9.1667" x2="1007.7277" y2="75.4071" gradientTransform="matrix(-0.8719 -0.4898 -0.4898 0.8719 1290.4249 557.2852)">
				<stop  offset="0" style="stop-color:#C4AC78"/>
				<stop  offset="1" style="stop-color:#C4AC78;stop-opacity:0"/>
			</linearGradient>
			<path class="st63" d="M468.9,115.2c4.3,0.9,8.5-1.9,9.3-6.2c0.9-4.3-1.9-8.5-6.2-9.3c-4.3-0.9-8.5,1.9-9.3,6.2
				C461.9,110.2,464.6,114.3,468.9,115.2z"/>
			
				<linearGradient id="SVGID_65_" gradientUnits="userSpaceOnUse" x1="935.6664" y1="-32.2336" x2="1028.6976" y2="52.3401" gradientTransform="matrix(-0.8719 -0.4898 -0.4898 0.8719 1290.4249 557.2852)">
				<stop  offset="0" style="stop-color:#C4AC78"/>
				<stop  offset="1" style="stop-color:#C4AC78;stop-opacity:0"/>
			</linearGradient>
			<circle class="st64" cx="466.8" cy="76.3" r="7.9"/>
			
				<linearGradient id="SVGID_66_" gradientUnits="userSpaceOnUse" x1="954.0045" y1="-52.4054" x2="1047.0355" y2="32.1683" gradientTransform="matrix(-0.8719 -0.4898 -0.4898 0.8719 1290.4249 557.2852)">
				<stop  offset="0" style="stop-color:#C4AC78"/>
				<stop  offset="1" style="stop-color:#C4AC78;stop-opacity:0"/>
			</linearGradient>
			<circle class="st65" cx="445.6" cy="53.2" r="7.9"/>
			
				<linearGradient id="SVGID_67_" gradientUnits="userSpaceOnUse" x1="962.6705" y1="-61.938" x2="1055.7015" y2="22.6357" gradientTransform="matrix(-0.8719 -0.4898 -0.4898 0.8719 1290.4249 557.2852)">
				<stop  offset="0" style="stop-color:#C4AC78"/>
				<stop  offset="1" style="stop-color:#C4AC78;stop-opacity:0"/>
			</linearGradient>
			<path class="st66" d="M413.9,39.2c-4.3,0.5-7.4,4.4-6.9,8.8c0.5,4.3,4.4,7.4,8.8,6.9c4.3-0.5,7.4-4.4,6.9-8.8
				C422.2,41.8,418.3,38.7,413.9,39.2z"/>
			
				<linearGradient id="SVGID_68_" gradientUnits="userSpaceOnUse" x1="958.3785" y1="-57.2168" x2="1051.4095" y2="27.357" gradientTransform="matrix(-0.8719 -0.4898 -0.4898 0.8719 1290.4249 557.2852)">
				<stop  offset="0" style="stop-color:#C4AC78"/>
				<stop  offset="1" style="stop-color:#C4AC78;stop-opacity:0"/>
			</linearGradient>
			<path class="st67" d="M392.2,54.8c-3-3.2-8-3.4-11.2-0.5c-3.2,3-3.4,8-0.5,11.2c3,3.2,8,3.4,11.2,0.5
				C394.9,63,395.1,58,392.2,54.8z"/>
			
				<linearGradient id="SVGID_69_" gradientUnits="userSpaceOnUse" x1="942.7631" y1="-40.0398" x2="1035.7943" y2="44.5339" gradientTransform="matrix(-0.8719 -0.4898 -0.4898 0.8719 1290.4249 557.2852)">
				<stop  offset="0" style="stop-color:#C4AC78"/>
				<stop  offset="1" style="stop-color:#C4AC78;stop-opacity:0"/>
			</linearGradient>
			<circle class="st68" cx="371" cy="87.5" r="7.9"/>
			
				<linearGradient id="SVGID_70_" gradientUnits="userSpaceOnUse" x1="921.8335" y1="-17.0174" x2="1014.8646" y2="67.5564" gradientTransform="matrix(-0.8719 -0.4898 -0.4898 0.8719 1290.4249 557.2852)">
				<stop  offset="0" style="stop-color:#C4AC78"/>
				<stop  offset="1" style="stop-color:#C4AC78;stop-opacity:0"/>
			</linearGradient>
			<circle class="st69" cx="374.6" cy="118.6" r="7.9"/>
		</g>
		<g>
			<path class="st70" d="M487.5,171.3c0.2-0.1,0.4-0.2,0.6-0.3c1.3-0.5,2.4,0.9,1.6,2c-17.5,20.8-43.6,35.4-76,37.6
				c-29.4,2-58.5-9.5-78.6-31.1c-53.4-57.3,11.6-97.2,36.5-49.6C392.4,169.6,446.1,188.7,487.5,171.3z"/>
			
				<linearGradient id="SVGID_71_" gradientUnits="userSpaceOnUse" x1="314.7517" y1="184.388" x2="458.6234" y2="184.388" gradientTransform="matrix(0.8831 -0.4691 -0.4691 -0.8831 111.027 436.3938)">
				<stop  offset="0" style="stop-color:#6ACFF6"/>
				<stop  offset="1" style="stop-color:#6ACFF6;stop-opacity:0"/>
			</linearGradient>
			<path class="st71" d="M400.6,7.7c0.2-0.1,0.4-0.2,0.5-0.3c1.1-0.7,0.6-2.5-0.8-2.4c-27.1,2.8-53.7,16.3-73.7,42
				c-18.1,23.2-24.9,53.8-18.3,82.5c17.6,76.3,87,44.8,61.6-2.5C348.8,87.5,363,32.2,400.6,7.7z"/>
		</g>
	</g>
	
		<linearGradient id="SVGID_72_" gradientUnits="userSpaceOnUse" x1="447.1172" y1="142.1703" x2="404.3644" y2="104.1678" gradientTransform="matrix(1 0 0 -1 0 215.7713)">
		<stop  offset="0" style="stop-color:#C4AC78"/>
		<stop  offset="1" style="stop-color:#C4AC78;stop-opacity:0"/>
	</linearGradient>
	<polygon class="st72" points="450.3,96.1 441.6,87.4 441.6,75.8 430,75.8 421.8,67.6 413.6,75.8 402.1,75.8 402.1,87.4 393.4,96.1 
		402.1,104.8 402.1,116.3 413.6,116.3 421.8,124.5 430,116.3 441.6,116.3 441.6,104.8 	"/>
	<g>
		<g>
			<path class="st70" d="M81.6,49.1c0.5,0.2,1.3,0.4,2.2,0.4c0.9,0,1.8-0.4,2.7-1.3c0.9-0.9,1.3-2.1,1.3-3.6c0-0.9-0.4-1.8-1.3-2.7
				s-2.1-1.3-3.6-1.3c-0.9,0-1.8,0.4-2.7,1.3c-0.9,0.9-1.3,1.9-1.3,3.2s0.4,2.3,1.3,3.2C80.6,48.6,81,48.9,81.6,49.1z"/>
			<path class="st70" d="M140,101.1c-0.9,0-1.9,0.4-2.7,1.3c-0.9,0.9-1.3,1.9-1.3,3.2s0.4,2.3,1.3,3.2c0.4,0.4,0.9,0.7,1.4,1
				c0.5,0.2,1.3,0.4,2.2,0.4s1.8-0.4,2.7-1.3s1.3-2.1,1.3-3.6c0-0.9-0.4-1.8-1.3-2.7C142.8,101.5,141.6,101.1,140,101.1z"/>
			<path class="st70" d="M151,101.1c-0.9,0-1.8,0.4-2.7,1.3s-1.3,1.9-1.3,3.2s0.4,2.3,1.3,3.2c0.4,0.4,0.9,0.7,1.4,1
				c0.5,0.2,1.3,0.4,2.2,0.4s1.8-0.4,2.7-1.3s1.3-2.1,1.3-3.6c0-0.9-0.4-1.8-1.3-2.7C153.7,101.5,152.5,101.1,151,101.1z"/>
			<path class="st70" d="M187.3,49.1c0.5,0.2,1.3,0.4,2.2,0.4s1.8-0.4,2.7-1.3c0.9-0.9,1.3-2.1,1.3-3.6c0-0.9-0.4-1.8-1.3-2.7
				c-0.9-0.9-2.1-1.3-3.6-1.3c-0.9,0-1.8,0.4-2.7,1.3c-0.9,0.9-1.3,1.9-1.3,3.2s0.4,2.3,1.3,3.2C186.3,48.6,186.8,48.9,187.3,49.1z"
				/>
			<path class="st70" d="M212.7,84.7h-6.8c-1.5,0-2.7-0.2-3.7-0.7c-0.9-0.4-1.8-1.2-2.5-2.3c-0.7-1.1-1.1-3.2-1.1-6.3v-12h-7.2v15.2
				c0,2.7-0.5,4.4-1.5,5.1s-3.1,1.1-6.2,1.1c-1.6,0-3-0.2-4.1-0.7c-1.1-0.4-2.1-1.2-2.9-2.2c-0.8-1-1.2-3.2-1.2-6.4V63.4h-7.2v15.2
				c0,1.4-0.2,2.5-0.5,3.3s-0.9,1.5-1.9,2s-3.4,0.8-7.4,0.8h-1.2l0,0l0,0c-1.5,0-2.7-0.2-3.7-0.7c-2.6-1.2-3.9-4.1-3.9-8.6V59.2
				h-7.2v19.4c0,2.6-0.7,4.4-2.1,5.4c-0.7,0.5-2.3,0.8-4.8,0.8h-6.3h-0.1h-12.4l0,0h-12.5l0,0l0,0h-6v-8.7c0-4.9-1-8.9-3.1-12.1
				c-2.7-4-6.8-6-12.2-6c-5.5,0-9.7,1.6-12.7,4.9c-3.1,3.3-4.6,7.7-4.6,13.1c0,2.8,0.8,5.8,2.4,8.8H32.7c-5.6,0-9.3-0.5-11.1-1.4
				s-2.7-3.1-2.7-6.4V66.4h-6.7v13c0,4.5,1.2,7.7,3.7,9.6c2.5,1.8,6.9,2.8,13.4,2.8h74.9l0,0l0,0h12.6l0,0h12.4h0.1h8.3
				c5.6,0,9.3-1.6,11-4.7c0.7,1.4,1.8,2.5,3.4,3.4c1.4,0.7,2.9,1.2,4.5,1.3c0.3,0,0.5,0.1,0.8,0.1h1.1c5.1,0,8.6-0.3,10.6-0.9
				s3.6-2.1,5-4.3c2,3.5,5.8,5.2,11.4,5.2c1.2,0,2.4-0.1,3.6-0.2c3.8-0.3,6.5-1.9,8.1-4.8c1.7,3.3,5.1,5,10.2,5h12.6V59.4h-7.2
				L212.7,84.7L212.7,84.7z M91.1,84.7h-7.8c-3.2,0-5.7-0.8-7.7-2.5c-1.9-1.7-2.9-4.1-2.9-7.1s0.8-5.5,2.5-7.4
				c0.8-0.9,1.7-1.6,2.9-2.2c1.1-0.6,2.5-0.8,4.1-0.8c1.7,0,3.1,0.3,4.3,1s2.3,1.8,3.2,3.3c0.9,1.5,1.4,3.9,1.4,7.3V84.7z"/>
			<path class="st70" d="M195.6,45c0,1.2,0.4,2.3,1.3,3.2c0.4,0.4,0.9,0.7,1.4,1c0.5,0.2,1.3,0.4,2.2,0.4s1.8-0.4,2.7-1.3
				c0.9-0.9,1.3-2.1,1.3-3.6c0-0.9-0.4-1.8-1.3-2.7c-0.9-0.9-2.1-1.3-3.6-1.3c-0.9,0-1.8,0.4-2.7,1.3C196,42.7,195.6,43.8,195.6,45z
				"/>
			<path class="st70" d="M193,39c0.5,0.2,1.3,0.4,2.2,0.4s1.8-0.4,2.7-1.3c0.9-0.9,1.3-1.9,1.3-3.1c0-0.6-0.1-1.2-0.4-1.7
				c-0.2-0.6-0.6-1-1-1.4c-0.4-0.4-0.9-0.7-1.4-1c-0.5-0.2-1.3-0.4-2.2-0.4s-1.8,0.4-2.7,1.3c-0.9,0.9-1.3,1.9-1.3,3.2
				s0.4,2.3,1.3,3.2C192,38.4,192.4,38.7,193,39z"/>
			<path class="st70" d="M238.5,86.7c0,6.4-0.4,10.5-1.2,12.4c-1,2.6-3.4,3.9-7.2,3.9h-2.8v7h2.5c6.2,0,10.4-1.6,12.6-4.9
				s3.3-9.1,3.3-17.5V59.2h-7.2L238.5,86.7L238.5,86.7z"/>
			<rect x="257.3" y="40.6" class="st70" width="7.2" height="51.1"/>
			<path class="st70" d="M263.9,33c-1.5,0-2.6-0.4-3.3-1.2c-0.7-0.8-1.1-1.8-1.1-2.9c0-2.6,1.4-3.8,4.3-3.8c1,0,2.1,0.2,3.2,0.7
				v-3.9c-0.7-0.5-1.8-0.7-3.2-0.7c-1.4,0-2.6,0.2-3.5,0.5s-1.6,0.8-2.3,1.4c-0.7,0.6-1.2,1.4-1.6,2.4c-0.4,0.9-0.6,2.1-0.6,3.5
				s0.4,2.7,1.2,4.1h-3.8v3.8h15.5v-3.8h-4.8V33z"/>
		</g>
		<g>
			<path class="st70" d="M40.7,144c-2.2,0-4.4,0.5-6.4,1.4c-5.8,2.7-9.7,8.8-11.7,18.2c-4.1,1.7-6.9,3.8-8.3,6.5s-2.1,6.7-2.1,12.3
				v12.1h6.9v-11.9c0-4.3,0.4-7.3,1.2-9s2.6-2.9,5.2-3.6c5.2,3.7,10.2,5.6,15.1,5.6c2.5,0,4.6-0.4,6.5-1.2c5.5-2.3,8.2-7.3,8.2-15
				c0-4.6-1.3-8.4-4-11.2C48.7,145.4,45.1,144,40.7,144z M40.4,168.9c-3.9,0-7.7-1.5-11.5-4.5c2.2-9.1,6.1-13.7,11.6-13.7
				c1.2,0,2.4,0.2,3.4,0.7c3,1.4,4.6,4.3,4.6,8.8C48.5,166,45.8,168.9,40.4,168.9z"/>
			<path class="st70" d="M189.3,167.8h-6.6c-1.4,0-2.6-0.2-3.5-0.6s-1.7-1.2-2.5-2.2c-0.7-1.1-1.1-3.1-1.1-6.1v-11.6h-6.9v14.6
				c0,2.6-0.5,4.2-1.5,4.9c-1,0.7-3,1-6,1c-1.5,0-2.9-0.2-4-0.6s-2-1.1-2.8-2.1s-1.1-3.1-1.1-6.2v-11.7h-6.9v14.7
				c0,1.4-0.1,2.4-0.4,3.2c-0.3,0.8-0.9,1.4-1.8,2s-3.3,0.8-7.1,0.8h-1.2h-12.1l0,0h-12.1c-0.1,0-0.1,0-0.2,0c-0.1,0-0.1,0-0.2,0
				c-1.4,0-2.6-0.2-3.6-0.6c-0.9-0.4-1.7-1.2-2.5-2.2c-0.7-1-1.1-3.1-1.1-6.1v-41.2h-6.9v44.3c0,2.5-0.7,4.2-2,5.2
				c-0.7,0.5-2.2,0.8-4.6,0.8h-4.8l-6.6-39.4h-7l6.6,39.4H62.6v6.8h30.1c5.4,0,8.9-1.5,10.6-4.6c0.6,1.3,1.7,2.4,3.2,3.3
				s3.2,1.3,5.1,1.3h0.1h0.1h12l0,0h12.1h1c4.9,0,8.3-0.3,10.2-0.9s3.5-2,4.8-4.1c1.9,3.4,5.6,5.1,11,5.1c1.2,0,2.4-0.1,3.5-0.2
				c3.7-0.3,6.3-1.9,7.8-4.6c1.6,3.2,4.9,4.8,9.8,4.8h12.2v-31.4h-6.9L189.3,167.8L189.3,167.8z"/>
			<path class="st70" d="M221.4,189.6c-0.7-0.8-1-1.7-1-2.8c0-2.5,1.4-3.7,4.2-3.7c1,0,2,0.3,3,0.8V180c-0.7-0.5-1.7-0.7-3.1-0.7
				s-2.5,0.2-3.3,0.5s-1.6,0.8-2.2,1.4c-0.7,0.6-1.2,1.4-1.6,2.3c-0.4,0.9-0.6,2-0.6,3.4s0.4,2.6,1.2,3.9h-3.7v3.7h14.9v-3.7h-4.6
				C223.2,190.8,222.1,190.4,221.4,189.6z"/>
			<polygon class="st70" points="239.4,167.8 228,167.8 221.3,128.4 214.4,128.4 221.1,167.8 204.6,167.8 204.6,174.6 246.4,174.6 
				246.4,117.6 239.4,117.6 			"/>
			<rect x="257.5" y="117.6" class="st70" width="6.9" height="57"/>
		</g>
	</g>
</g>
</svg>
