<svg version="1.1" id="Layer_1" xmlns="http://www.w3.org/2000/svg" xmlns:xlink="http://www.w3.org/1999/xlink" x="0px" y="0px"
	 width="100%" viewBox="0 0 512 512" enable-background="new 0 0 512 512" xml:space="preserve">
<path fill="#000000" opacity="1.000000" stroke="none" 
	d="
M340.000000,513.000000 
	C227.024200,513.000000 114.048401,513.000000 1.036300,513.000000 
	C1.036300,342.394104 1.036300,171.788177 1.036300,1.091125 
	C171.569336,1.091125 342.138733,1.091125 512.854065,1.091125 
	C512.854065,171.666580 512.854065,342.333282 512.854065,513.000000 
	C468.911133,513.000000 424.920563,513.000000 380.268829,512.655029 
	C376.666504,496.783051 373.221222,481.330078 370.927368,465.708008 
	C368.676056,450.375458 367.085388,434.900940 366.179047,419.431641 
	C365.569946,409.036407 366.206238,398.503510 367.093658,388.101135 
	C368.312469,373.814209 369.595856,359.468719 372.088684,345.367035 
	C378.543121,308.854706 391.795746,274.873901 412.097626,243.751770 
	C431.270630,214.360123 454.574707,188.935318 484.004028,169.481400 
	C486.611145,167.757980 487.052307,165.673203 487.048004,162.831970 
	C486.977814,116.349213 487.000763,69.866318 486.987762,23.383459 
	C486.987305,21.776848 486.830963,20.170280 486.715607,17.955360 
	C484.584320,18.907179 482.851654,19.429201 481.390045,20.371624 
	C460.671600,33.730865 440.537933,47.993073 422.748901,65.058182 
	C409.607941,77.664375 397.146240,91.127205 385.578003,105.192154 
	C364.188019,131.198669 348.584930,160.641129 337.337463,192.365036 
	C326.944305,221.679352 321.511383,252.075775 320.293121,282.993439 
	C319.511353,302.834076 320.615753,322.850494 322.363037,342.656830 
	C323.733643,358.193665 326.681519,373.692719 330.211823,388.910889 
	C334.190948,406.063751 339.318359,422.972107 344.502167,439.815765 
	C347.845581,450.679291 352.188629,461.235138 355.899323,472.124695 
	C355.592163,472.451233 355.469421,472.581909 355.093384,472.489075 
	C337.650452,451.657074 324.369263,428.734711 314.443329,403.843903 
	C304.455750,378.798431 298.646942,352.662079 297.275055,325.874847 
	C296.148987,303.887817 296.459595,281.804474 299.801514,259.814575 
	C303.131653,237.902008 307.529266,216.267227 314.534821,195.298630 
	C320.071960,178.725006 326.939484,162.592621 333.331268,146.309448 
	C335.761597,140.118149 338.050476,134.170822 335.697083,127.234314 
	C331.085815,113.642838 326.863892,99.916969 322.618561,86.204086 
	C314.618591,60.363411 306.735382,34.486576 298.733704,8.646443 
	C298.147980,6.754901 296.998444,5.037946 295.349274,1.696333 
	C289.574066,9.413920 284.480286,15.818983 279.817139,22.523582 
	C261.739288,48.515663 246.569901,76.093636 234.228668,105.289070 
	C220.352585,138.115555 211.629684,172.239929 209.235046,207.696793 
	C207.502243,233.354446 208.829575,259.116486 214.341248,284.374115 
	C220.420013,312.230408 230.167419,338.756989 243.420593,364.116455 
	C260.978546,397.712952 283.965179,427.175354 310.031860,454.379333 
	C317.470551,462.142517 325.799103,469.053009 333.522644,476.537476 
	C333.194550,476.842499 333.063385,476.964630 332.578857,477.029358 
	C331.471405,476.639740 330.667938,476.388428 329.970367,475.963348 
	C310.812469,464.289673 292.848785,451.121063 278.332825,433.793579 
	C269.635345,423.411499 260.701111,413.172241 252.752747,402.229950 
	C237.540543,381.287750 225.498489,358.488251 214.897354,334.882141 
	C203.912888,310.422363 194.764420,285.337708 187.956772,259.408356 
	C185.126312,248.627472 182.703156,238.375336 172.634811,230.727127 
	C153.700134,216.343781 135.947205,200.408112 117.622322,185.215103 
	C114.686897,182.781372 111.333305,180.852005 107.288849,178.084442 
	C106.449097,188.157852 105.127945,196.847717 105.151321,205.533951 
	C105.180664,216.441101 106.087364,227.364304 107.012016,238.246887 
	C109.161621,263.546448 116.671013,287.450775 127.236931,310.349335 
	C140.009125,338.029388 157.322571,362.846039 177.912064,385.215302 
	C193.879959,402.563446 211.051086,418.772064 229.784058,433.180176 
	C257.092163,454.183594 285.873657,472.881348 316.908752,487.979767 
	C319.524963,489.252533 322.084442,490.641968 324.670288,491.977173 
	C320.054291,492.347504 315.755188,491.780762 311.499603,490.982208 
	C286.075989,486.211731 262.372528,476.970062 240.147400,463.748260 
	C224.620804,454.511444 209.732559,444.392212 196.570007,432.000549 
	C183.170944,419.386261 169.050110,407.285095 157.288391,393.247437 
	C141.521774,374.429779 127.795685,353.908875 112.993454,334.270050 
	C110.669746,331.187103 107.709755,327.463531 104.330185,326.474060 
	C77.588867,318.644531 50.685333,311.366394 23.804335,304.018707 
	C18.316401,302.518646 16.880148,303.858368 18.670742,309.190826 
	C22.972271,322.000916 26.770332,335.084839 32.348740,347.340332 
	C45.160759,375.487762 63.276546,399.854523 86.160500,420.906555 
	C106.463066,439.583771 129.230377,454.384003 153.686111,466.630707 
	C174.532257,477.069885 196.404663,485.124756 218.881851,491.459808 
	C257.308624,502.290100 296.387726,509.143127 336.301514,511.083344 
	C337.562439,511.144623 338.768402,512.335632 340.000000,513.000000 
z"/>
<path fill="#18557B" opacity="1.000000" stroke="none" 
	d="
M340.468658,513.000000 
	C338.768402,512.335632 337.562439,511.144623 336.301514,511.083344 
	C296.387726,509.143127 257.308624,502.290100 218.881851,491.459808 
	C196.404663,485.124756 174.532257,477.069885 153.686111,466.630707 
	C129.230377,454.384003 106.463066,439.583771 86.160500,420.906555 
	C63.276546,399.854523 45.160759,375.487762 32.348740,347.340332 
	C26.770332,335.084839 22.972271,322.000916 18.670742,309.190826 
	C16.880148,303.858368 18.316401,302.518646 23.804335,304.018707 
	C50.685333,311.366394 77.588867,318.644531 104.330185,326.474060 
	C107.709755,327.463531 110.669746,331.187103 112.993454,334.270050 
	C127.795685,353.908875 141.521774,374.429779 157.288391,393.247437 
	C169.050110,407.285095 183.170944,419.386261 196.570007,432.000549 
	C209.732559,444.392212 224.620804,454.511444 240.147400,463.748260 
	C262.372528,476.970062 286.075989,486.211731 311.499603,490.982208 
	C315.755188,491.780762 320.054291,492.347504 324.670288,491.977173 
	C322.084442,490.641968 319.524963,489.252533 316.908752,487.979767 
	C285.873657,472.881348 257.092163,454.183594 229.784058,433.180176 
	C211.051086,418.772064 193.879959,402.563446 177.912064,385.215302 
	C157.322571,362.846039 140.009125,338.029388 127.236931,310.349335 
	C116.671013,287.450775 109.161621,263.546448 107.012016,238.246887 
	C106.087364,227.364304 105.180664,216.441101 105.151321,205.533951 
	C105.127945,196.847717 106.449097,188.157852 107.288849,178.084442 
	C111.333305,180.852005 114.686897,182.781372 117.622322,185.215103 
	C135.947205,200.408112 153.700134,216.343781 172.634811,230.727127 
	C182.703156,238.375336 185.126312,248.627472 187.956772,259.408356 
	C194.764420,285.337708 203.912888,310.422363 214.897354,334.882141 
	C225.498489,358.488251 237.540543,381.287750 252.752747,402.229950 
	C260.701111,413.172241 269.635345,423.411499 278.332825,433.793579 
	C292.848785,451.121063 310.812469,464.289673 329.970367,475.963348 
	C330.667938,476.388428 331.471405,476.639740 332.703186,477.246979 
	C333.624939,477.533508 334.069031,477.545044 334.513092,477.556610 
	C334.248596,477.155914 333.984100,476.755219 333.719604,476.354523 
	C325.799103,469.053009 317.470551,462.142517 310.031860,454.379333 
	C283.965179,427.175354 260.978546,397.712952 243.420593,364.116455 
	C230.167419,338.756989 220.420013,312.230408 214.341248,284.374115 
	C208.829575,259.116486 207.502243,233.354446 209.235046,207.696793 
	C211.629684,172.239929 220.352585,138.115555 234.228668,105.289070 
	C246.569901,76.093636 261.739288,48.515663 279.817139,22.523582 
	C284.480286,15.818983 289.574066,9.413920 295.349274,1.696333 
	C296.998444,5.037946 298.147980,6.754901 298.733704,8.646443 
	C306.735382,34.486576 314.618591,60.363411 322.618561,86.204086 
	C326.863892,99.916969 331.085815,113.642838 335.697083,127.234314 
	C338.050476,134.170822 335.761597,140.118149 333.331268,146.309448 
	C326.939484,162.592621 320.071960,178.725006 314.534821,195.298630 
	C307.529266,216.267227 303.131653,237.902008 299.801514,259.814575 
	C296.459595,281.804474 296.148987,303.887817 297.275055,325.874847 
	C298.646942,352.662079 304.455750,378.798431 314.443329,403.843903 
	C324.369263,428.734711 337.650452,451.657074 355.264771,472.665405 
	C356.060699,473.072876 356.431976,473.080566 356.803223,473.088226 
	C356.563385,472.701782 356.323547,472.315338 356.083710,471.928894 
	C352.188629,461.235138 347.845581,450.679291 344.502167,439.815765 
	C339.318359,422.972107 334.190948,406.063751 330.211823,388.910889 
	C326.681519,373.692719 323.733643,358.193665 322.363037,342.656830 
	C320.615753,322.850494 319.511353,302.834076 320.293121,282.993439 
	C321.511383,252.075775 326.944305,221.679352 337.337463,192.365036 
	C348.584930,160.641129 364.188019,131.198669 385.578003,105.192154 
	C397.146240,91.127205 409.607941,77.664375 422.748901,65.058182 
	C440.537933,47.993073 460.671600,33.730865 481.390045,20.371624 
	C482.851654,19.429201 484.584320,18.907179 486.715607,17.955360 
	C486.830963,20.170280 486.987305,21.776848 486.987762,23.383459 
	C487.000763,69.866318 486.977814,116.349213 487.048004,162.831970 
	C487.052307,165.673203 486.611145,167.757980 484.004028,169.481400 
	C454.574707,188.935318 431.270630,214.360123 412.097626,243.751770 
	C391.795746,274.873901 378.543121,308.854706 372.088684,345.367035 
	C369.595856,359.468719 368.312469,373.814209 367.093658,388.101135 
	C366.206238,398.503510 365.569946,409.036407 366.179047,419.431641 
	C367.085388,434.900940 368.676056,450.375458 370.927368,465.708008 
	C373.221222,481.330078 376.666504,496.783051 379.803833,512.655029 
	C366.979095,513.000000 353.958221,513.000000 340.468658,513.000000 
z"/>
<path fill="#000000" opacity="1.000000" stroke="none" 
	d="
M355.899323,472.124695 
	C356.323547,472.315338 356.563385,472.701782 356.803223,473.088226 
	C356.431976,473.080566 356.060699,473.072876 355.518066,472.888916 
	C355.469421,472.581909 355.592163,472.451233 355.899323,472.124695 
z"/>
<path fill="#000000" opacity="1.000000" stroke="none" 
	d="
M333.522644,476.537476 
	C333.984100,476.755219 334.248596,477.155914 334.513092,477.556610 
	C334.069031,477.545044 333.624939,477.533508 333.056580,477.304321 
	C333.063385,476.964630 333.194550,476.842499 333.522644,476.537476 
z"/>
</svg>